<svg xmlns="http://www.w3.org/2000/svg" width="42" height="75.612" viewBox="0 0 42 75.612"><path d="M12.987,75.612H4.739V48.384a10.86,10.86,0,0,1,.245-3.377A13.026,13.026,0,0,1,8.95,38.2,20.974,20.974,0,0,1,0,21a21.006,21.006,0,0,1,40.35-8.174A21.022,21.022,0,0,1,32.792,38.38a12.635,12.635,0,0,1,3.632,6.27,18.925,18.925,0,0,1,.64,3.735V75.61H28.913V48.384a7.507,7.507,0,0,0-1.019-2.98,6.715,6.715,0,0,0-2.074-2.175,8.238,8.238,0,0,0-3.829-1.252c-.333.016-.667.023-.991.023-.386,0-.769-.01-1.139-.031a8.158,8.158,0,0,0-3.85,1.235,6.51,6.51,0,0,0-2.055,2.179,7.381,7.381,0,0,0-.969,3V75.611ZM21,8a11.476,11.476,0,0,0-8.485,3.808A13.48,13.48,0,0,0,9,21a13.481,13.481,0,0,0,3.515,9.193,11.358,11.358,0,0,0,16.971,0A13.481,13.481,0,0,0,33,21a13.479,13.479,0,0,0-3.515-9.192A11.477,11.477,0,0,0,21,8Z" fill="#009a48"/></svg>